<svg width="600" height="400" viewBox="0 0 600 400" fill="none" xmlns="http://www.w3.org/2000/svg">
  <defs>
    <linearGradient id="primaryGradient" x1="0%" y1="0%" x2="100%" y2="100%">
      <stop offset="0%" style="stop-color:#8b5cf6;stop-opacity:1" />
      <stop offset="100%" style="stop-color:#ec4899;stop-opacity:1" />
    </linearGradient>
    <linearGradient id="secondaryGradient" x1="0%" y1="0%" x2="100%" y2="100%">
      <stop offset="0%" style="stop-color:#a855f7;stop-opacity:1" />
      <stop offset="100%" style="stop-color:#8b5cf6;stop-opacity:1" />
    </linearGradient>
    <linearGradient id="bgGradient" x1="0%" y1="0%" x2="100%" y2="100%">
      <stop offset="0%" style="stop-color:#faf5ff;stop-opacity:1" />
      <stop offset="100%" style="stop-color:#fdf2f8;stop-opacity:1" />
    </linearGradient>
  </defs>
  
  <!-- Background -->
  <rect width="600" height="400" fill="url(#bgGradient)"/>
  
  <!-- Floating geometric shapes -->
  <circle cx="100" cy="80" r="3" fill="url(#primaryGradient)" opacity="0.6"/>
  <circle cx="520" cy="120" r="2" fill="url(#secondaryGradient)" opacity="0.8"/>
  <rect x="480" y="60" width="4" height="4" fill="url(#primaryGradient)" opacity="0.5" transform="rotate(45 482 62)"/>
  <rect x="80" y="300" width="3" height="3" fill="url(#secondaryGradient)" opacity="0.7" transform="rotate(45 81.5 301.5)"/>
  
  <!-- Main shield icon -->
  <g transform="translate(250, 80)">
    <path d="M50 0L90 20V60C90 80 70 100 50 100C30 100 10 80 10 60V20L50 0Z" fill="url(#primaryGradient)" opacity="0.1"/>
    <path d="M50 10L80 25V55C80 70 65 85 50 85C35 85 20 70 20 55V25L50 10Z" fill="url(#primaryGradient)"/>
    <path d="M50 20L70 30V50C70 60 60 70 50 70C40 70 30 60 30 50V30L50 20Z" fill="white"/>
    <path d="M45 40L48 43L55 36" stroke="url(#primaryGradient)" stroke-width="2" stroke-linecap="round" stroke-linejoin="round" fill="none"/>
  </g>
  
  <!-- Scam detection elements -->
  <g transform="translate(150, 200)">
    <!-- Browser window -->
    <rect x="0" y="0" width="120" height="80" rx="8" fill="white" stroke="url(#primaryGradient)" stroke-width="2"/>
    <rect x="0" y="0" width="120" height="20" rx="8" fill="url(#primaryGradient)"/>
    <circle cx="15" cy="10" r="3" fill="white" opacity="0.8"/>
    <circle cx="25" cy="10" r="3" fill="white" opacity="0.6"/>
    <circle cx="35" cy="10" r="3" fill="white" opacity="0.4"/>
    
    <!-- Warning symbol -->
    <g transform="translate(45, 35)">
      <path d="M15 5L25 20H5L15 5Z" fill="url(#secondaryGradient)"/>
      <path d="M15 11V15" stroke="white" stroke-width="2" stroke-linecap="round"/>
      <circle cx="15" cy="17" r="1" fill="white"/>
    </g>
  </g>
  
  <!-- Analysis dashboard -->
  <g transform="translate(350, 180)">
    <rect x="0" y="0" width="140" height="100" rx="12" fill="white" stroke="url(#secondaryGradient)" stroke-width="2" opacity="0.9"/>
    
    <!-- Chart bars -->
    <rect x="20" y="70" width="8" height="15" fill="url(#primaryGradient)" rx="2"/>
    <rect x="35" y="60" width="8" height="25" fill="url(#secondaryGradient)" rx="2"/>
    <rect x="50" y="65" width="8" height="20" fill="url(#primaryGradient)" rx="2"/>
    <rect x="65" y="55" width="8" height="30" fill="url(#secondaryGradient)" rx="2"/>
    
    <!-- Status indicators -->
    <circle cx="100" cy="25" r="4" fill="url(#primaryGradient)"/>
    <circle cx="100" cy="40" r="4" fill="url(#secondaryGradient)"/>
    <circle cx="100" cy="55" r="4" fill="#10b981"/>
    
    <!-- Text lines -->
    <rect x="110" y="22" width="20" height="2" fill="url(#primaryGradient)" opacity="0.6" rx="1"/>
    <rect x="110" y="37" width="15" height="2" fill="url(#secondaryGradient)" opacity="0.6" rx="1"/>
    <rect x="110" y="52" width="18" height="2" fill="#10b981" opacity="0.6" rx="1"/>
  </g>
  
  <!-- Connected nodes/network -->
  <g transform="translate(100, 300)">
    <circle cx="0" cy="0" r="6" fill="url(#primaryGradient)"/>
    <circle cx="40" cy="-20" r="4" fill="url(#secondaryGradient)"/>
    <circle cx="80" cy="10" r="5" fill="url(#primaryGradient)"/>
    <circle cx="120" cy="-10" r="4" fill="url(#secondaryGradient)"/>
    
    <!-- Connection lines -->
    <line x1="6" y1="-3" x2="36" y2="-17" stroke="url(#primaryGradient)" stroke-width="2" opacity="0.6"/>
    <line x1="43" y1="-16" x2="77" y2="7" stroke="url(#secondaryGradient)" stroke-width="2" opacity="0.6"/>
    <line x1="85" y1="8" x2="116" y2="-8" stroke="url(#primaryGradient)" stroke-width="2" opacity="0.6"/>
  </g>
  
  <!-- Floating particles -->
  <circle cx="200" cy="50" r="2" fill="url(#primaryGradient)" opacity="0.4">
    <animate attributeName="cy" values="50;40;50" dur="3s" repeatCount="indefinite"/>
  </circle>
  <circle cx="400" cy="320" r="1.5" fill="url(#secondaryGradient)" opacity="0.5">
    <animate attributeName="cy" values="320;310;320" dur="4s" repeatCount="indefinite"/>
  </circle>
  <rect x="550" y="200" width="3" height="3" fill="url(#primaryGradient)" opacity="0.3" transform="rotate(45 551.5 201.5)">
    <animateTransform attributeName="transform" values="rotate(45 551.5 201.5);rotate(90 551.5 201.5);rotate(45 551.5 201.5)" dur="6s" repeatCount="indefinite"/>
  </rect>
</svg>
